:FULLY-SPECIFIED
:FORCE-ALL-JOINTS-BE-3DOF
:DEGREES
714
root -8.81612 14.3093 -38.4961 137.618 -70.3675 -136.772
lfemur -51.6917 20.6961 6.06726
ltibia 61.5846 -0 0
lfoot 2.87253 -1.42017 0.70546
ltoes -3.38109 0 0
rfemur -1.15526 -10.2028 13.9452
rtibia 53.5046 -0 0
rfoot -26.845 -29.0861 0.00442855
rtoes -18.1027 0 0
lowerback 14.9966 1.67433 7.16603
upperback -0.648972 3.70081 4.65244
thorax -9.01949 1.47023 0.162403
lowerneck -4.57239 5.94702 0.613602
upperneck 3.91483 7.89465 0.282764
head 2.08186 3.94241 0.23503
lclavicle -3.16122e-14 1.58195e-14 -2.9113e-31
lhumerus 45.9294 16.0081 96.1748
lradius 32.8352 -0 0
lwrist -64.6969 0 0
lhand -30.6349 39.6031 0.10754
lfingers 7.12502 -0 0
lthumb -3.93042 69.5295 0.104407
rclavicle -3.16122e-14 1.58195e-14 -2.9113e-31
rhumerus -70.4739 25.6991 -96.7087
rradius 118.262 -0 0
rwrist -61.7069 0 0
rhand -9.58183 -40.8862 3.31813
rfingers 7.12502 -0 0
rthumb 16.0238 -68.397 3.99257
715
root -8.76549 14.3144 -38.499 137.032 -70.6738 -136.162
lfemur -51.5498 20.6774 6.12209
ltibia 61.4475 -0 0
lfoot 2.98509 -1.26223 0.721604
ltoes -3.41843 0 0
rfemur -1.32864 -10.2676 13.9235
rtibia 53.6015 -0 0
rfoot -26.8325 -29.0771 0.00452945
rtoes -18.1152 0 0
lowerback 15.0058 1.6824 7.1332
upperback -0.653691 3.70639 4.63086
thorax -9.03018 1.47423 0.155585
lowerneck -4.57806 5.97398 0.639869
upperneck 3.91964 7.93145 0.237217
head 2.08923 3.95978 0.218189
lclavicle -3.16521e-14 1.56344e-14 -2.97763e-31
lhumerus 45.3961 15.8166 95.7296
lradius 33.461 -0 0
lwrist -64.0766 0 0
lhand -30.5933 39.6685 0.109992
lfingers 7.12502 -0 0
lthumb -3.89026 69.5953 0.106787
rclavicle -3.16521e-14 1.56344e-14 -2.97763e-31
rhumerus -70.2981 25.8976 -96.7195
rradius 118.247 -0 0
rwrist -61.3263 0 0
rhand -9.2782 -40.6166 3.39527
rfingers 7.12502 -0 0
rthumb 16.3098 -68.0548 4.08581
716
root -8.71486 14.3195 -38.502 136.427 -70.978 -135.533
lfemur -51.408 20.6587 6.17686
ltibia 61.3104 -0 0
lfoot 3.0977 -1.10426 0.737438
ltoes -3.45577 0 0
rfemur -1.50203 -10.3324 13.902
rtibia 53.6984 -0 0
rfoot -26.8201 -29.0681 0.00462839
rtoes -18.1277 0 0
lowerback 15.0149 1.69047 7.10037
upperback -0.658413 3.71197 4.60928
thorax -9.04088 1.47823 0.148767
lowerneck -4.58372 6.00094 0.666135
upperneck 3.92442 7.96825 0.191669
head 2.0966 3.97715 0.20135
lclavicle -3.1692e-14 1.54493e-14 -3.04267e-31
lhumerus 44.8649 15.6211 95.2867
lradius 34.0867 -0 0
lwrist -63.4563 0 0
lhand -30.5517 39.734 0.112396
lfingers 7.12502 -0 0
lthumb -3.85009 69.6612 0.109121
rclavicle -3.1692e-14 1.54493e-14 -3.04267e-31
rhumerus -70.122 26.0961 -96.7297
rradius 118.232 -0 0
rwrist -60.9456 0 0
rhand -8.9742 -40.3466 3.47099
rfingers 7.12502 -0 0
rthumb 16.5965 -67.7121 4.17734
717
root -8.66423 14.3246 -38.505 135.802 -71.28 -134.885
lfemur -51.2662 20.6398 6.23157
ltibia 61.1733 -0 0
lfoot 3.21034 -0.946256 0.752961
ltoes -3.49311 0 0
rfemur -1.67543 -10.3973 13.8807
rtibia 53.7952 -0 0
rfoot -26.8077 -29.0591 0.00472538
rtoes -18.1402 0 0
lowerback 15.0241 1.69855 7.06754
upperback -0.663137 3.71754 4.5877
thorax -9.05158 1.48222 0.141949
lowerneck -4.58936 6.0279 0.6924
upperneck 3.92917 8.00505 0.14612
head 2.10395 3.99453 0.184512
lclavicle -3.17318e-14 1.52642e-14 -3.10642e-31
lhumerus 44.3358 15.4217 94.8461
lradius 34.7124 -0 0
lwrist -62.836 0 0
lhand -30.5101 39.7995 0.114753
lfingers 7.12502 -0 0
lthumb -3.80992 69.727 0.111409
rclavicle -3.17318e-14 1.52642e-14 -3.10642e-31
rhumerus -69.9456 26.2946 -96.7392
rradius 118.216 -0 0
rwrist -60.5649 0 0
rhand -8.66981 -40.0761 3.54527
rfingers 7.12502 -0 0
rthumb 16.8837 -67.3689 4.26716
718
root -8.6136 14.3297 -38.5079 135.156 -71.5796 -134.216
lfemur -51.1244 20.6208 6.28623
ltibia 61.0361 -0 0
lfoot 3.32303 -0.788222 0.768173
ltoes -3.53045 0 0
rfemur -1.84885 -10.4622 13.8596
rtibia 53.8921 -0 0
rfoot -26.7952 -29.05 0.0048204
rtoes -18.1527 0 0
lowerback 15.0332 1.70663 7.0347
upperback -0.667863 3.72311 4.56611
thorax -9.06227 1.48622 0.135129
lowerneck -4.595 6.05486 0.718663
upperneck 3.93389 8.04186 0.100571
head 2.11131 4.0119 0.167677
lclavicle -3.17717e-14 1.5079e-14 -3.16888e-31
lhumerus 43.8088 15.2184 94.4078
lradius 35.3382 -0 0
lwrist -62.2157 0 0
lhand -30.4685 39.865 0.117062
lfingers 7.12502 -0 0
lthumb -3.76975 69.7928 0.113651
rclavicle -3.17717e-14 1.5079e-14 -3.16888e-31
rhumerus -69.769 26.4932 -96.748
rradius 118.201 -0 0
rwrist -60.1842 0 0
rhand -8.36505 -39.8053 3.61812
rfingers 7.12502 -0 0
rthumb 17.1714 -67.0252 4.35526
719
root -8.56297 14.3348 -38.5109 134.489 -71.8768 -133.525
lfemur -50.9827 20.6017 6.34083
ltibia 60.899 -0 0
lfoot 3.43576 -0.630158 0.783075
ltoes -3.56779 0 0
rfemur -2.02227 -10.5272 13.8387
rtibia 53.9889 -0 0
rfoot -26.7828 -29.041 0.00491347
rtoes -18.1652 0 0
lowerback 15.0424 1.71471 7.00188
upperback -0.672591 3.72869 4.54453
thorax -9.07297 1.49022 0.128309
lowerneck -4.60062 6.08183 0.744924
upperneck 3.93858 8.07867 0.0550198
head 2.11866 4.02928 0.150844
lclavicle -3.18115e-14 1.48939e-14 -3.23006e-31
lhumerus 43.2839 15.0113 93.9719
lradius 35.9639 -0 0
lwrist -61.5954 0 0
lhand -30.4269 39.9305 0.119323
lfingers 7.12502 -0 0
lthumb -3.72957 69.8587 0.115847
rclavicle -3.18115e-14 1.48939e-14 -3.23006e-31
rhumerus -69.5921 26.6918 -96.7561
rradius 118.186 -0 0
rwrist -59.8035 0 0
rhand -8.05992 -39.534 3.68953
rfingers 7.12502 -0 0
rthumb 17.4598 -66.681 4.44163
720
root -8.51234 14.3398 -38.5139 133.8 -72.1714 -132.813
lfemur -50.841 20.5825 6.39537
ltibia 60.7619 -0 0
lfoot 3.54854 -0.472064 0.797665
ltoes -3.60513 0 0
rfemur -2.19571 -10.5923 13.818
rtibia 54.0858 -0 0
rfoot -26.7704 -29.032 0.00500458
rtoes -18.1777 0 0
lowerback 15.0515 1.72281 6.96905
upperback -0.677321 3.73426 4.52295
thorax -9.08367 1.49421 0.121488
lowerneck -4.60623 6.1088 0.771185
upperneck 3.94324 8.11549 0.00946791
head 2.126 4.04666 0.134012
lclavicle -3.18514e-14 1.47088e-14 -3.28994e-31
lhumerus 42.7612 14.8003 93.5384
lradius 36.5897 -0 0
lwrist -60.9752 0 0
lhand -30.3853 39.996 0.121537
lfingers 7.12502 -0 0
lthumb -3.6894 69.9245 0.117997
rclavicle -3.18514e-14 1.47088e-14 -3.28994e-31
rhumerus -69.415 26.8904 -96.7636
rradius 118.171 -0 0
rwrist -59.4228 0 0
rhand -7.75444 -39.2623 3.7595
rfingers 7.12502 -0 0
rthumb 17.7487 -66.3364 4.52628
721
root -8.46171 14.3449 -38.5168 133.087 -72.4633 -132.077
lfemur -50.6993 20.5631 6.44986
ltibia 60.6248 -0 0
lfoot 3.66135 -0.313941 0.811945
ltoes -3.64247 0 0
rfemur -2.36916 -10.6575 13.7975
rtibia 54.1826 -0 0
rfoot -26.7579 -29.0229 0.00509373
rtoes -18.1902 0 0
lowerback 15.0607 1.7309 6.93622
upperback -0.682053 3.73983 4.50137
thorax -9.09437 1.4982 0.114666
lowerneck -4.61183 6.13577 0.797444
upperneck 3.94788 8.15231 -0.0360852
head 2.13334 4.06404 0.117183
lclavicle -3.18913e-14 1.45237e-14 -3.34854e-31
lhumerus 42.2407 14.5854 93.1074
lradius 37.2154 -0 0
lwrist -60.3549 0 0
lhand -30.3437 40.0615 0.123704
lfingers 7.12502 -0 0
lthumb -3.64922 69.9903 0.1201
rclavicle -3.18913e-14 1.45237e-14 -3.34854e-31
rhumerus -69.2376 27.089 -96.7704
rradius 118.155 -0 0
rwrist -59.0422 0 0
rhand -7.4486 -38.9903 3.82801
rfingers 7.12502 -0 0
rthumb 18.0381 -65.9913 4.60919
722
root -8.41108 14.35 -38.5198 132.35 -72.7523 -131.316
lfemur -50.5577 20.5436 6.50428
ltibia 60.4877 -0 0
lfoot 3.7742 -0.15579 0.825912
ltoes -3.67981 0 0
rfemur -2.54263 -10.7227 13.7772
rtibia 54.2795 -0 0
rfoot -26.7455 -29.0139 0.00518091
rtoes -18.2027 0 0
lowerback 15.0698 1.739 6.90339
upperback -0.686788 3.74539 4.47978
thorax -9.10507 1.5022 0.107843
lowerneck -4.61742 6.16274 0.823702
upperneck 3.95248 8.18913 -0.0816395
head 2.14068 4.08142 0.100355
lclavicle -3.19311e-14 1.43386e-14 -3.40585e-31
lhumerus 41.7223 14.3669 92.6788
lradius 37.8412 -0 0
lwrist -59.7346 0 0
lhand -30.3021 40.127 0.125823
lfingers 7.12502 -0 0
lthumb -3.60903 70.0562 0.122157
rclavicle -3.19311e-14 1.43386e-14 -3.40585e-31
rhumerus -69.0598 27.2876 -96.7766
rradius 118.14 -0 0
rwrist -58.6615 0 0
rhand -7.14242 -38.7178 3.89508
rfingers 7.12502 -0 0
rthumb 18.328 -65.6457 4.69036
723
root -8.36045 14.3551 -38.5228 131.588 -73.0384 -130.531
lfemur -50.4161 20.524 6.55865
ltibia 60.3506 -0 0
lfoot 3.88709 0.00238861 0.839569
ltoes -3.71715 0 0
rfemur -2.71611 -10.7879 13.757
rtibia 54.3763 -0 0
rfoot -26.7331 -29.0049 0.00526614
rtoes -18.2152 0 0
lowerback 15.0789 1.74711 6.87057
upperback -0.691524 3.75096 4.4582
thorax -9.11577 1.50619 0.10102
lowerneck -4.62299 6.18972 0.849958
upperneck 3.95706 8.22595 -0.127195
head 2.14801 4.09881 0.083529
lclavicle -3.1971e-14 1.41534e-14 -3.46188e-31
lhumerus 41.2062 14.1445 92.2527
lradius 38.4669 -0 0
lwrist -59.1143 0 0
lhand -30.2605 40.1924 0.127894
lfingers 7.12502 -0 0
lthumb -3.56885 70.122 0.124168
rclavicle -3.1971e-14 1.41534e-14 -3.46188e-31
rhumerus -68.8818 27.4862 -96.782
rradius 118.125 -0 0
rwrist -58.2808 0 0
rhand -6.83589 -38.445 3.96069
rfingers 7.12502 -0 0
rthumb 18.6185 -65.2997 4.76978
724
root -8.30983 14.3602 -38.5257 130.8 -73.3212 -129.719
lfemur -50.2746 20.5042 6.61296
ltibia 60.2134 -0 0
lfoot 4.00002 0.160595 0.852913
ltoes -3.75449 0 0
rfemur -2.8896 -10.8532 13.7371
rtibia 54.4732 -0 0
rfoot -26.7206 -28.9959 0.00534942
rtoes -18.2277 0 0
lowerback 15.0881 1.75522 6.83775
upperback -0.696263 3.75652 4.43661
thorax -9.12647 1.51017 0.0941956
lowerneck -4.62855 6.2167 0.876213
upperneck 3.9616 8.26278 -0.172752
head 2.15533 4.1162 0.066705
lclavicle -3.20109e-14 1.39683e-14 -3.51661e-31
lhumerus 40.6923 13.9185 91.829
lradius 39.0926 -0 0
lwrist -58.494 0 0
lhand -30.2189 40.2579 0.129918
lfingers 7.12502 -0 0
lthumb -3.52866 70.1878 0.126133
rclavicle -3.20109e-14 1.39683e-14 -3.51661e-31
rhumerus -68.7035 27.6849 -96.7868
rradius 118.109 -0 0
rwrist -57.9001 0 0
rhand -6.52903 -38.1718 4.02485
rfingers 7.12502 -0 0
rthumb 18.9095 -64.9532 4.84746
725
root -8.2592 14.3653 -38.5287 129.984 -73.6008 -128.881
lfemur -50.1331 20.4843 6.66721
ltibia 60.0763 -0 0
lfoot 4.11299 0.318827 0.865946
ltoes -3.79183 0 0
rfemur -3.06311 -10.9186 13.7174
rtibia 54.57 -0 0
rfoot -26.7082 -28.9868 0.00543073
rtoes -18.2402 0 0
lowerback 15.0972 1.76334 6.80492
upperback -0.701004 3.76208 4.41503
thorax -9.13717 1.51416 0.0873706
lowerneck -4.6341 6.24368 0.902467
upperneck 3.96612 8.29962 -0.21831
head 2.16265 4.13359 0.0498828
lclavicle -3.20507e-14 1.37832e-14 -3.57006e-31
lhumerus 40.1806 13.6888 91.4079
lradius 39.7184 -0 0
lwrist -57.8738 0 0
lhand -30.1773 40.3234 0.131894
lfingers 7.12502 -0 0
lthumb -3.48847 70.2537 0.128052
rclavicle -3.20507e-14 1.37832e-14 -3.57006e-31
rhumerus -68.5248 27.8836 -96.7909
rradius 118.094 -0 0
rwrist -57.5194 0 0
rhand -6.22184 -37.8982 4.08754
rfingers 7.12502 -0 0
rthumb 19.201 -64.6063 4.92338
